<svg xmlns="http://www.w3.org/2000/svg" height="40" viewBox="0 -960 960 960" width="40"><path d="M178.461-200q-24.692 0-41.577-16.884Q120-233.769 120-258.461v-443.078q0-24.692 16.884-41.577Q153.769-760 178.461-760h603.078q24.692 0 41.577 16.884Q840-726.231 840-701.539v443.078q0 24.692-16.884 41.577Q806.231-200 781.539-200H178.461ZM480-487.923q4.487 0 8.526-1.5 4.038-1.5 8.115-3.577L795.18-690.718q4.718-3.154 5.923-8.218T800-708.949q-1.538-5.59-8.461-8.41-6.923-2.821-12.975 1.051L480-520.821 181.589-716.308q-6.051-3.872-12.666-1.859-6.616 2.013-8.923 7.782-2.308 5.026-1.026 10.808 1.282 5.782 5.846 8.859L463.872-493q3.564 2.077 7.602 3.577 4.039 1.5 8.526 1.5Z"/></svg>