<svg xmlns="http://www.w3.org/2000/svg" height="40" viewBox="0 -960 960 960" width="40"><path d="M480-242.872q-7.02 0-14.104-2.538-7.084-2.539-13.05-7.616-76.384-60.179-153.077-149.192-76.692-89.013-76.692-194.859 0-64.945 23.167-113.883 23.166-48.938 59.934-82.22t82.92-50.051Q435.25-860 479.987-860q44.736 0 90.901 16.769 46.166 16.769 82.934 50.051 36.768 33.282 59.934 82.22 23.167 48.938 23.167 113.883 0 105.846-76.692 194.859-76.693 89.013-153.077 149.192-5.966 5.077-13.05 7.616-7.084 2.538-14.104 2.538Zm.1-303.282q24.08 0 40.451-16.472 16.372-16.471 16.372-40.551 0-24.08-16.472-40.451Q503.98-660 479.9-660q-24.08 0-40.451 16.471-16.372 16.472-16.372 40.552 0 24.079 16.472 40.451 16.471 16.372 40.551 16.372ZM240-100q-7.192 0-12.058-4.909-4.865-4.91-4.865-12.167t4.865-12.014q4.866-4.756 12.058-4.756h480q7.192 0 12.058 4.909 4.865 4.91 4.865 12.167t-4.865 12.014Q727.192-100 720-100H240Z"/></svg>