<svg xmlns="http://www.w3.org/2000/svg" height="40" viewBox="0 -960 960 960" width="40"><path d="M756.257-160q-98.231 0-203.975-51.141T354.026-354.795q-91.744-92.513-142.885-197.872Q160-658.026 160-756.257q0-18.153 12.41-30.948Q184.82-800 202.974-800h91.949q16.82 0 28.564 10.346t16.359 27.243l20.513 91.18q2.256 15.949-1.436 28.564-3.692 12.616-12.718 20.616l-88.744 82.82q26.565 46.795 56.859 86.449 30.295 39.654 64.372 74.269 36.795 37.462 79.052 68.705 42.256 31.244 92.359 58.68l86.205-88.205q9.923-10.846 21.628-14.372t26.321-1.526l78.154 16.923q16.974 3.488 27.282 16.398Q800-309 800-292.102v89.128q0 18.154-12.795 30.564T756.257-160Z"/></svg>